<?xml version="1.0" standalone="no"?>
<!DOCTYPE svg PUBLIC "-//W3C//DTD SVG 20010904//EN"
 "http://www.w3.org/TR/2001/REC-SVG-20010904/DTD/svg10.dtd">
<svg version="1.0" xmlns="http://www.w3.org/2000/svg"
 width="928.000000pt" height="928.000000pt" viewBox="0 0 928.000000 928.000000"
 preserveAspectRatio="xMidYMid meet">
<metadata>
Created by potrace 1.11, written by Peter Selinger 2001-2013
</metadata>
<g transform="translate(0.000000,928.000000) scale(0.100000,-0.100000)"
fill="#000000" stroke="none">
<path d="M3507 8152 c-2 -4 -3 -880 -3 -1946 l1 -1940 -245 -82 c-135 -45
-256 -87 -270 -92 -14 -5 -27 -10 -30 -10 -3 -1 -32 -11 -65 -22 -33 -12 -67
-23 -75 -25 -8 -2 -161 -54 -340 -115 -179 -61 -332 -113 -340 -115 -8 -2
-168 -56 -355 -120 -495 -169 -1026 -347 -1041 -349 -7 -1 -17 -5 -20 -9 -4
-4 -14 -7 -22 -7 -14 0 -28 -6 -132 -54 -149 -69 -265 -149 -368 -255 -39 -41
-72 -77 -72 -82 0 -4 -6 -14 -13 -21 -25 -24 -73 -123 -92 -188 -14 -46 -20
-95 -20 -165 0 -92 2 -104 29 -149 16 -27 42 -62 57 -77 40 -39 145 -109 153
-102 3 4 6 1 6 -5 0 -7 5 -12 10 -12 6 0 32 -9 58 -21 26 -12 56 -25 67 -30
30 -13 170 -58 197 -63 13 -3 77 -18 143 -34 66 -17 136 -33 155 -35 19 -3 45
-8 56 -11 12 -2 37 -7 55 -10 19 -3 43 -7 54 -10 11 -2 54 -9 95 -16 41 -6 86
-14 100 -17 14 -2 39 -6 55 -8 17 -2 44 -6 60 -9 17 -3 48 -8 70 -11 22 -3 51
-7 65 -10 43 -9 84 -15 125 -20 22 -2 40 -4 40 -5 0 -4 117 -22 220 -34 303
-37 665 -33 940 9 17 3 48 7 70 10 82 12 188 33 325 66 42 10 256 74 283 85 9
3 12 -46 12 -212 0 -118 2 -219 5 -223 4 -6 284 -102 335 -115 6 -2 17 -6 25
-9 8 -3 60 -20 115 -37 55 -17 108 -35 117 -41 10 -5 27 -9 38 -9 11 0 28 -4
38 -9 20 -11 51 -23 70 -27 8 -1 21 -6 30 -10 9 -4 22 -8 27 -9 31 -7 523
-167 537 -175 10 -6 24 -10 32 -10 8 0 27 -5 43 -12 15 -6 32 -10 37 -9 4 1
13 -3 20 -8 16 -13 63 -5 142 25 35 13 64 20 64 16 0 -4 4 -2 8 4 6 9 51 26
187 70 28 9 59 20 70 24 26 11 165 60 185 65 8 1 39 12 68 24 28 11 52 18 52
15 0 -4 6 -2 12 3 7 5 42 20 78 32 36 12 72 25 80 28 8 3 20 7 25 9 12 2 323
112 345 121 8 4 17 7 20 8 3 0 43 14 90 30 47 16 87 30 90 30 3 1 19 7 35 14
17 7 62 23 100 36 61 21 233 82 363 129 23 8 43 15 45 15 1 0 13 4 27 9 47 17
205 73 265 94 33 11 69 24 80 28 11 5 52 19 90 33 39 14 108 38 155 55 47 17
146 52 220 78 74 26 146 51 160 57 25 10 39 15 63 20 6 1 17 6 24 10 7 4 52
21 100 37 48 16 120 41 158 55 39 15 77 28 85 30 8 2 15 4 15 5 0 1 7 3 15 5
15 3 120 40 155 55 41 17 231 110 260 127 17 10 56 37 88 61 31 23 59 42 62
42 2 0 24 19 47 42 121 119 170 212 174 328 7 170 -93 329 -289 462 -141 96
-430 208 -650 253 -10 2 -26 6 -35 9 -9 3 -30 8 -47 11 -16 2 -41 7 -55 10
-47 9 -145 28 -165 30 -11 2 -51 8 -90 15 -38 6 -86 12 -105 14 -19 3 -57 7
-85 11 -88 10 -176 19 -325 31 -105 8 -529 9 -628 1 -88 -8 -192 -18 -227 -22
-16 -2 -52 -7 -80 -10 -54 -7 -105 -14 -139 -21 -11 -2 -41 -7 -66 -10 -25 -3
-48 -8 -51 -10 -4 -2 -26 -6 -50 -9 -23 -3 -63 -11 -88 -16 -25 -6 -55 -13
-66 -14 -11 -2 -58 -13 -105 -25 -47 -11 -96 -23 -110 -26 -14 -3 -43 -10 -65
-16 -22 -6 -44 -12 -50 -14 -57 -13 -287 -82 -390 -116 -33 -11 -64 -21 -70
-22 -5 -1 -14 -4 -20 -7 -8 -5 -45 -17 -75 -24 -3 0 -15 -6 -27 -13 -13 -7
-23 -10 -23 -8 0 3 -20 -3 -45 -14 -24 -10 -46 -16 -48 -12 -2 4 -3 747 -2
1652 2 1474 4 1649 18 1683 45 106 189 156 350 121 89 -19 186 -99 202 -167 4
-18 8 -617 9 -1331 l1 -1300 60 -18 c33 -9 71 -20 85 -23 14 -2 45 -9 70 -14
25 -5 63 -12 85 -15 23 -4 52 -9 65 -11 125 -25 394 -25 510 -1 23 5 79 18 90
21 3 1 19 5 35 9 161 40 386 200 483 342 14 22 32 45 39 52 7 7 13 19 13 27 0
7 4 15 9 17 5 2 29 46 54 98 58 122 98 237 123 360 2 14 7 32 9 40 4 13 14 70
20 110 11 73 19 146 17 153 -1 4 2 7 7 7 6 0 6 12 1 29 -4 16 -6 32 -3 35 12
12 19 391 9 481 -3 22 -7 63 -10 90 -38 323 -164 626 -364 880 -123 155 -305
319 -472 427 -41 26 -80 52 -87 57 -26 22 -260 143 -267 139 -2 -2 -12 4 -22
13 -11 9 -38 23 -61 32 -23 9 -61 25 -85 36 -100 45 -437 161 -468 161 -9 0
-20 3 -24 7 -3 4 -12 8 -19 10 -11 2 -112 28 -147 38 -29 8 -136 36 -210 56
-41 11 -82 22 -91 24 -9 2 -69 18 -134 35 -65 17 -127 33 -138 36 -11 2 -34 8
-51 13 -39 13 -303 81 -335 87 -13 3 -31 9 -40 13 -9 5 -29 12 -46 15 -27 5
-132 32 -225 57 -19 5 -42 11 -50 13 -15 4 -140 37 -290 77 -41 11 -82 22 -90
24 -8 1 -35 9 -60 16 -61 17 -69 18 -73 11z m-3 -4960 c-2 -300 -2 -298 -11
-289 -3 4 -12 2 -20 -4 -7 -6 -13 -9 -13 -5 0 4 -13 0 -30 -9 -16 -9 -30 -13
-30 -11 0 3 -15 -1 -34 -9 -18 -8 -36 -11 -40 -8 -3 4 -6 1 -6 -5 0 -7 -9 -12
-20 -12 -12 0 -34 -7 -50 -15 -17 -9 -30 -13 -30 -11 0 3 -17 -2 -37 -10 -20
-9 -44 -18 -52 -20 -33 -7 -296 -98 -301 -103 -3 -3 -12 -7 -20 -7 -8 -1 -130
-41 -270 -88 -562 -191 -513 -178 -645 -181 -137 -2 -259 38 -329 108 -43 44
-56 71 -56 114 0 74 67 139 186 181 172 61 282 101 304 110 14 6 59 23 100 37
41 15 84 30 95 35 11 5 47 18 80 29 33 11 112 39 175 61 63 23 176 63 250 90
74 27 194 69 265 95 72 26 153 54 180 63 28 9 52 19 55 22 3 3 12 6 20 8 8 1
74 24 145 51 72 27 132 49 135 50 3 1 4 -119 4 -267z m4240 103 c176 -33 220
-113 113 -207 -38 -34 -158 -100 -232 -129 -34 -13 -514 -179 -620 -214 -38
-13 -221 -75 -405 -138 -184 -64 -357 -123 -385 -132 -27 -9 -57 -19 -65 -22
-8 -3 -19 -7 -25 -9 -10 -3 -517 -177 -545 -187 -8 -3 -40 -13 -70 -23 -30 -9
-61 -21 -67 -27 -7 -5 -13 -7 -13 -3 0 5 -30 -4 -95 -30 -11 -4 -24 -9 -30 -9
-5 -1 -17 -5 -25 -8 -38 -16 -78 -30 -105 -37 -16 -5 -50 -16 -75 -25 -25 -10
-57 -21 -71 -25 l-26 -8 1 245 1 246 140 48 c77 27 140 49 140 48 0 0 7 2 15
5 8 3 126 44 261 90 136 46 252 87 258 90 6 4 19 9 29 11 21 4 168 52 197 65
21 9 122 42 140 46 6 1 28 10 49 19 22 9 48 19 59 21 16 3 165 52 217 71 161
60 623 206 675 214 39 6 81 12 95 15 14 2 61 7 105 10 44 4 81 7 82 8 8 7 212
-7 277 -19z"/>
</g>
</svg>
